<?xml version="1.0" encoding="UTF-8"?>
<svg width="168px" height="194px" viewBox="0 0 168 194" version="1.1" xmlns="http://www.w3.org/2000/svg" xmlns:xlink="http://www.w3.org/1999/xlink">
    <!-- Generator: Sketch 47.1 (45422) - http://www.bohemiancoding.com/sketch -->
    <title>Group</title>
    <desc>Created with Sketch.</desc>
    <defs></defs>
    <g id="Page-1" stroke="none" stroke-width="1" fill="none" fill-rule="evenodd">
        <g id="Group" fill-rule="nonzero">
            <path d="M114,194 L21.8,194 C13.2,194 6.3,187 6.3,178.5 L6.3,46.8 L129.5,46.8 L129.5,178.5 C129.5,187.1 122.6,194 114,194 Z" id="Shape" fill="#DCF3F7"></path>
            <path d="M137.7,173.3 L108.3,173.3 L108.3,55.6 L137.7,55.6 C154.3,55.6 167.8,69.1 167.8,85.7 L167.8,143.3 C167.8,159.8 154.3,173.3 137.7,173.3 Z M128,153.6 L137.8,153.6 C143.5,153.6 148.2,148.9 148.2,143.2 L148.2,85.6 C148.2,79.9 143.5,75.2 137.8,75.2 L128,75.2 L128,153.6 Z" id="Shape" fill="#DCF3F7"></path>
            <path d="M21.8,185.3 C18,185.3 14.9,182.2 14.9,178.4 L14.9,59.8 L120.8,59.8 L120.8,178.5 C120.8,182.3 117.7,185.4 113.9,185.4 L21.8,185.4 L21.8,185.3 Z" id="Shape" fill="#F9ED32"></path>
            <path d="M36.1,120.4 L36.1,120.4 C32.7,120.4 30,117.7 30,114.3 L30,36.3 L42.2,36.3 L42.2,114.3 C42.2,117.7 39.5,120.4 36.1,120.4 Z" id="Shape" fill="#FFFFFF"></path>
            <path d="M52,99.7 L52,99.7 C50.4,99.7 49.1,98.4 49.1,96.8 L49.1,43.6 C49.1,42 50.4,40.7 52,40.7 L52,40.7 C53.6,40.7 54.9,42 54.9,43.6 L54.9,96.8 C54.9,98.4 53.6,99.7 52,99.7 Z" id="Shape" fill="#FFFFFF"></path>
            <path d="M105.8,175.6 L105.8,175.6 C102.8,175.6 100.4,173.2 100.4,170.2 L100.4,76.7 C100.4,73.7 102.8,71.3 105.8,71.3 L105.8,71.3 C108.8,71.3 111.2,73.7 111.2,76.7 L111.2,170.2 C111.2,173.2 108.8,175.6 105.8,175.6 Z" id="Shape" fill="#FFFACF"></path>
            <path d="M128.7,46.9 L129.6,46.9 C132.1,44.1 133.6,40.5 133.6,36.7 C133.6,27.6 125.3,20.2 115.1,20.2 C114.1,20.2 113.2,20.3 112.3,20.4 C110.8,12.2 102.1,5.9 91.5,5.9 C86.3,5.9 81.6,7.4 77.9,9.9 C72.8,4.1 63.8,0.2 53.5,0.2 C38.6,0.2 26.3,8.3 24.7,18.8 C22.8,18.2 20.8,17.8 18.7,17.8 C8.8,17.8 0.7,25.4 0.7,34.7 C0.7,39.5 2.8,43.8 6.2,46.9 L126.8,46.9 L128.7,46.9 Z" id="Shape" fill="#FFFFFF"></path>
        </g>
    </g>
</svg>