<?xml version="1.0" encoding="UTF-8"?>
<svg width="106px" height="190px" viewBox="0 0 106 190" version="1.1" xmlns="http://www.w3.org/2000/svg" xmlns:xlink="http://www.w3.org/1999/xlink">
    <!-- Generator: Sketch 47.1 (45422) - http://www.bohemiancoding.com/sketch -->
    <title>Group</title>
    <desc>Created with Sketch.</desc>
    <defs></defs>
    <g id="Page-1" stroke="none" stroke-width="1" fill="none" fill-rule="evenodd">
        <g id="logos2" transform="translate(-813.000000, -97.000000)" fill-rule="nonzero" fill="#546ECC">
            <g id="Group" transform="translate(786.000000, 70.000000)">
                <g transform="translate(27.000000, 27.000000)" id="Shape">
                    <path d="M100.119,2.504 C78.258,-0.162 53.544,-3.526 34.827,10.749 C16.298,24.88 20.612,49.305 20.73,69.886 C21.163,68.843 21.595,67.798 22.028,66.755 C21.955,66.844 21.882,66.933 21.809,67.023 C22.853,66.59 23.896,66.158 24.94,65.726 C18.217,66.039 11.442,65.379 4.725,65.818 C2.317,65.976 0.296,67.714 0.296,70.247 C0.296,80.339 0.296,90.431 0.296,100.522 C0.296,102.936 2.311,104.951 4.725,104.951 C11.474,104.951 18.223,104.951 24.972,104.951 C23.495,103.475 22.02,101.998 20.543,100.522 C20.543,128.635 20.543,156.747 20.543,184.86 C20.543,187.274 22.558,189.289 24.972,189.289 C37.923,189.288 50.875,189.285 63.826,189.284 C66.986,189.284 69.61,185.446 67.65,182.62 C68.985,184.546 68.057,182.429 68.057,181.045 C68.057,179.587 68.057,178.127 68.057,176.668 C68.057,173.416 68.057,170.164 68.057,166.912 C68.059,158.945 68.061,150.976 68.063,143.01 C68.066,128.799 68.069,114.587 68.069,100.375 C65.169,100.768 62.27,101.16 59.37,101.553 C59.388,101.602 59.404,101.652 59.422,101.701 C60.082,103.578 61.617,104.952 63.693,104.952 C69.326,104.952 74.96,104.952 80.592,104.952 C85.087,104.952 92.442,105.818 95.726,102.253 C98.722,99.001 98.005,90.722 98.516,86.517 C99.173,81.1 101.028,74.553 100.162,69.17 C99.926,67.708 98.432,66.434 97.068,66.076 C93.224,65.068 88.666,65.772 84.73,65.771 C81.363,65.77 77.997,65.769 74.629,65.77 C71.74,65.771 67.802,66.48 65.008,65.759 C66.039,66.79 67.071,67.822 68.101,68.853 C67.206,65.49 68.091,60.669 68.09,57.178 C68.089,52.775 67.625,48.026 69.542,43.919 C73.427,35.596 88.411,41.446 94.792,42.348 C97.265,42.698 99.431,41.778 100.24,39.255 C101.829,34.298 102.007,28.435 102.812,23.294 C103.582,18.375 105.725,12.105 105.146,7.164 C104.894,5.017 103.936,3.672 101.895,2.893 C101.695,2.817 101.496,2.741 101.295,2.664 C95.948,0.623 93.658,9.19 98.94,11.206 C99.14,11.282 99.34,11.359 99.542,11.434 C98.456,10.011 97.372,8.587 96.288,7.163 C96.864,12.067 94.659,18.444 93.896,23.319 C93.211,27.693 93.05,32.68 91.699,36.899 C93.515,35.868 95.331,34.836 97.147,33.806 C86.037,32.236 73.813,27.54 64.346,36.128 C60.47,39.643 59.614,45.486 59.269,50.384 C58.833,56.562 57.967,65.226 59.558,71.207 C59.95,72.677 61.173,73.919 62.652,74.3 C67.122,75.454 72.556,74.629 77.153,74.628 C82.374,74.627 90.062,73.399 94.713,74.618 C93.681,73.587 92.65,72.555 91.62,71.525 C92.192,75.079 90.361,80.676 89.921,84.336 C89.327,89.264 88.734,94.191 88.164,99.123 C88.597,98.079 89.029,97.035 89.462,95.991 C89.212,96.263 88.961,96.534 88.712,96.805 C89.756,96.373 90.799,95.94 91.844,95.508 C82.447,95.755 73.106,96.095 63.693,96.095 C65.117,97.178 66.541,98.263 67.964,99.346 C67.946,99.297 67.93,99.247 67.911,99.199 C66.297,94.602 59.212,95.182 59.212,100.376 C59.212,115.222 59.208,130.066 59.204,144.912 C59.203,152.814 59.202,160.717 59.2,168.619 C59.2,172.289 59.2,175.96 59.2,179.63 C59.2,181.907 58.622,185.103 60.001,187.092 C61.276,184.87 62.551,182.649 63.826,180.427 C50.875,180.428 37.923,180.43 24.972,180.431 C26.449,181.907 27.924,183.384 29.401,184.86 C29.401,156.747 29.401,128.635 29.401,100.522 C29.401,98.108 27.387,96.093 24.972,96.093 C18.223,96.093 11.474,96.093 4.725,96.093 C6.202,97.569 7.677,99.046 9.154,100.522 C9.154,90.431 9.154,80.338 9.154,70.247 C7.677,71.723 6.202,73.2 4.725,74.676 C9.66,74.353 14.688,74.62 19.633,74.62 C23.073,74.62 28.228,75.436 29.429,71.064 C30.908,65.693 29.578,58.326 29.575,52.763 C29.57,46.04 28.906,38.937 30.314,32.33 C33.097,19.258 46.599,12.346 58.528,9.865 C71.755,7.114 86.881,9.749 100.119,11.364 C105.781,12.052 105.715,3.186 100.119,2.504 Z"></path>
                    <path d="M64.784,180.876 C64.485,180.876 64.186,180.876 63.888,180.876 C61.473,180.876 59.458,182.891 59.458,185.305 C59.458,187.719 61.473,189.734 63.888,189.734 C64.187,189.734 64.486,189.734 64.784,189.734 C67.199,189.734 69.214,187.719 69.214,185.305 C69.214,182.891 67.199,180.876 64.784,180.876 C64.485,180.876 64.186,180.876 63.888,180.876 C61.473,180.876 59.458,182.891 59.458,185.305 C59.458,187.719 61.473,189.734 63.888,189.734 C64.187,189.734 64.486,189.734 64.784,189.734 C67.199,189.734 69.214,187.719 69.214,185.305 C69.214,182.891 67.199,180.876 64.784,180.876 Z"></path>
                </g>
            </g>
        </g>
    </g>
</svg>