<?xml version="1.0" encoding="UTF-8"?>
<svg width="168px" height="168px" viewBox="0 0 168 168" version="1.1" xmlns="http://www.w3.org/2000/svg" xmlns:xlink="http://www.w3.org/1999/xlink">
    <!-- Generator: Sketch 47.1 (45422) - http://www.bohemiancoding.com/sketch -->
    <title>Group</title>
    <desc>Created with Sketch.</desc>
    <defs></defs>
    <g id="Page-1" stroke="none" stroke-width="1" fill="none" fill-rule="evenodd">
        <g id="logos2" transform="translate(-458.000000, -108.000000)" fill-rule="nonzero" fill="#D81FFF">
            <g id="Group" transform="translate(427.000000, 77.000000)">
                <g transform="translate(31.000000, 31.000000)" id="Shape">
                    <path d="M164.063,134.303 C169.792,116.222 167.542,95.274 167.494,76.553 C167.449,59.391 168.549,40.827 160.653,25.058 C154.385,12.542 141.424,5.025 128.149,2.173 C119.531,0.322 110.473,0.663 101.716,0.581 C91.002,0.48 80.286,0.456 69.572,0.542 C52.993,0.675 35.115,0.377 20.915,10.196 C8.534,18.757 3.065,33.229 1.572,47.67 C-0.477,67.484 0.738,88.283 1.146,108.177 C1.483,124.6 3.594,140.715 15.638,152.82 C33.321,170.591 61.708,166.785 84.495,167.195 C86.91,167.238 88.924,165.148 88.924,162.766 C88.924,162.693 88.924,162.619 88.924,162.546 C87.448,164.022 85.971,165.499 84.495,166.975 C101.936,167.021 121.202,168.697 137.839,162.512 C150.857,157.672 159.41,147.066 164.063,134.303 C166.025,128.924 157.462,126.626 155.522,131.948 C151.168,143.888 142.778,152.08 130.526,155.598 C116.058,159.753 99.395,158.158 84.494,158.118 C82.078,158.111 80.065,160.137 80.065,162.547 C80.065,162.62 80.065,162.694 80.065,162.767 C81.541,161.291 83.018,159.814 84.494,158.338 C67.031,158.024 46.309,160.758 30.27,152.617 C12.174,143.43 10.325,123.875 9.954,105.749 C9.559,86.519 8.973,66.86 10.43,47.672 C11.719,30.705 21.463,16.676 38.005,11.931 C47.328,9.256 57.489,9.542 67.099,9.426 C76.99,9.307 86.881,9.335 96.771,9.4 C114.427,9.518 133.598,8.305 147.225,21.55 C160.146,34.109 158.479,55.189 158.61,71.628 C158.689,81.482 158.634,91.337 158.55,101.191 C158.463,111.579 158.694,121.938 155.522,131.948 C153.792,137.409 162.345,139.728 164.063,134.303 Z"></path>
                    <path d="M84.177,119.817 C64.646,119.414 49.371,104.602 48.209,85.109 C47.017,65.095 63.444,48.939 82.845,47.746 C102.657,46.528 119.02,62.784 120.242,82.057 C121.559,102.79 104.326,119.397 84.177,119.817 C78.473,119.936 78.462,128.794 84.177,128.675 C109.09,128.156 128.611,108.751 129.138,83.814 C129.66,59.145 108.622,39.389 84.625,38.854 C59.822,38.3 39.857,59.151 39.318,83.365 C38.759,108.411 59.803,128.173 84.177,128.676 C89.893,128.793 89.881,119.936 84.177,119.817 Z"></path>
                    <path d="M124.763,39.895 C125.002,35.804 130.388,35.719 131.336,39.455 C132.417,43.713 125.008,44.64 124.763,39.895 C124.47,34.212 115.61,34.184 115.905,39.895 C116.26,46.762 121.255,51.698 128.1,52.085 C134.967,52.473 139.882,46.147 140.195,39.855 C140.508,33.582 134.904,28.083 128.805,27.831 C121.66,27.536 116.312,32.927 115.905,39.895 C115.572,45.604 124.432,45.571 124.763,39.895 Z"></path>
                </g>
            </g>
        </g>
    </g>
</svg>