<?xml version="1.0" encoding="UTF-8"?>
<svg width="216px" height="172px" viewBox="0 0 216 172" version="1.1" xmlns="http://www.w3.org/2000/svg" xmlns:xlink="http://www.w3.org/1999/xlink">
    <!-- Generator: Sketch 47.1 (45422) - http://www.bohemiancoding.com/sketch -->
    <title>Artboard</title>
    <desc>Created with Sketch.</desc>
    <defs></defs>
    <g id="Page-1" stroke="none" stroke-width="1" fill="none" fill-rule="evenodd">
        <g id="Artboard" fill-rule="nonzero" fill="#FFFFFF">
            <g id="logo" transform="translate(3.000000, 12.000000)">
                <g id="Group">
                    <polygon id="Shape" points="0.5 112.5 16.8 112.5 16.8 9.2 0.5 9.2 0.5 0 43.6 0 43.6 9.3 27.4 9.3 27.4 54.5 99.9 54.5 99.9 9.2 83.6 9.2 83.6 0 126.7 0 126.7 9.3 110.4 9.3 110.4 112.6 126.7 112.6 126.7 121.9 83.6 121.9 83.6 112.6 99.9 112.6 99.9 63.9 27.4 63.9 27.4 112.6 43.7 112.6 43.7 121.9 0.5 121.9"></polygon>
                    <polyline id="Shape" points="123.3 54.4 183.1 54.4 183.1 9.2 166.8 9.2 166.8 0 209.9 0 209.9 9.3 193.6 9.3 193.6 112.6 209.9 112.6 209.9 121.9 166.8 121.9 166.8 112.6 183.1 112.6 183.1 63.9 123.3 63.9"></polyline>
                </g>
                <g id="Group" transform="translate(0.000000, 136.000000)">
                    <path d="M0.7,1.2 C0.7,0.9 0.9,0.7 1.2,0.7 L4.4,0.7 C4.7,0.7 4.9,0.9 4.9,1.2 L4.9,8 L12.6,8 L12.6,1.2 C12.6,0.9 12.8,0.7 13.1,0.7 L16.3,0.7 C16.6,0.7 16.8,0.9 16.8,1.2 L16.8,19 C16.8,19.3 16.6,19.5 16.3,19.5 L13.1,19.5 C12.8,19.5 12.6,19.3 12.6,19 L12.6,12 L4.9,12 L4.9,19.1 C4.9,19.4 4.7,19.6 4.4,19.6 L1.2,19.6 C0.9,19.6 0.7,19.4 0.7,19.1 L0.7,1.2 Z" id="Shape"></path>
                    <path d="M32.4,0.5 C37.8,0.5 42.1,4.8 42.1,10.2 C42.1,15.6 37.8,19.9 32.4,19.9 C27,19.9 22.7,15.6 22.7,10.2 C22.8,4.8 27,0.5 32.4,0.5 Z M32.4,15.5 C35.4,15.5 37.8,13.1 37.8,10.2 C37.8,7.2 35.4,4.8 32.4,4.8 C29.5,4.8 27,7.2 27,10.2 C27.1,13.1 29.5,15.5 32.4,15.5 Z" id="Shape"></path>
                    <path d="M48,1.2 C48,0.9 48.2,0.7 48.5,0.7 L55,0.7 C58.3,0.7 61,3.4 61,6.6 C61,9.9 58.3,12.6 55,12.6 L52.2,12.6 L52.2,18.9 C52.2,19.2 52,19.4 51.7,19.4 L48.5,19.4 C48.2,19.4 48,19.2 48,18.9 L48,1.2 Z M54.8,8.8 C56,8.8 56.9,7.9 56.9,6.7 C56.9,5.6 55.9,4.7 54.8,4.7 L52.2,4.7 L52.2,8.8 L54.8,8.8 Z" id="Shape"></path>
                    <path d="M66.5,1.2 C66.5,0.9 66.7,0.7 67,0.7 L73.5,0.7 C76.8,0.7 79.5,3.4 79.5,6.6 C79.5,9.9 76.8,12.6 73.5,12.6 L70.7,12.6 L70.7,18.9 C70.7,19.2 70.5,19.4 70.2,19.4 L67,19.4 C66.7,19.4 66.5,19.2 66.5,18.9 L66.5,1.2 Z M73.2,8.8 C74.4,8.8 75.3,7.9 75.3,6.7 C75.3,5.6 74.3,4.7 73.2,4.7 L70.6,4.7 L70.6,8.8 L73.2,8.8 Z" id="Shape"></path>
                    <path d="M83.9,17 L85.2,14.8 C85.4,14.4 85.9,14.5 86.1,14.6 C86.2,14.7 88.1,16.1 89.9,16.1 C91,16.1 91.8,15.4 91.8,14.5 C91.8,13.4 90.9,12.5 89,11.8 C86.7,10.9 83.8,9.1 83.8,5.9 C83.8,3.2 85.9,0.6 90,0.6 C92.8,0.6 94.9,2 95.8,2.6 C96.1,2.8 96.1,3.3 96,3.5 L94.6,5.6 C94.4,5.9 93.9,6.1 93.7,6 C93.5,5.9 91.5,4.4 89.9,4.4 C88.9,4.4 88.2,5 88.2,5.8 C88.2,6.8 89,7.5 91.1,8.4 C93.2,9.2 96.5,10.9 96.5,14.5 C96.5,17.3 94.1,20.1 90.2,20.1 C86.7,20.1 84.8,18.6 84.2,18 C83.8,17.5 83.7,17.4 83.9,17 Z" id="Shape"></path>
                    <path d="M111,1.2 C111,0.9 111.2,0.7 111.5,0.7 L114.7,0.7 C115,0.7 115.2,0.9 115.2,1.2 L115.2,8 L122.9,8 L122.9,1.2 C122.9,0.9 123.1,0.7 123.4,0.7 L126.6,0.7 C126.9,0.7 127.1,0.9 127.1,1.2 L127.1,19 C127.1,19.3 126.9,19.5 126.6,19.5 L123.4,19.5 C123.1,19.5 122.9,19.3 122.9,19 L122.9,12 L115.2,12 L115.2,19.1 C115.2,19.4 115,19.6 114.7,19.6 L111.5,19.6 C111.2,19.6 111,19.4 111,19.1 L111,1.2 Z" id="Shape"></path>
                    <path d="M142.7,0.5 C148.1,0.5 152.4,4.8 152.4,10.2 C152.4,15.6 148.1,19.9 142.7,19.9 C137.3,19.9 133,15.6 133,10.2 C133.1,4.8 137.4,0.5 142.7,0.5 Z M142.7,15.5 C145.7,15.5 148.1,13.1 148.1,10.2 C148.1,7.2 145.7,4.8 142.7,4.8 C139.8,4.8 137.3,7.2 137.3,10.2 C137.4,13.1 139.8,15.5 142.7,15.5 Z" id="Shape"></path>
                    <path d="M158.1,1.2 C158.1,0.9 158.3,0.7 158.6,0.7 L161.9,0.7 C162.2,0.7 162.4,0.9 162.4,1.2 L162.4,12.1 C162.4,14 163.8,15.5 165.7,15.5 C167.6,15.5 169.1,14 169.1,12.1 L169.1,1.2 C169.1,0.9 169.3,0.7 169.6,0.7 L172.9,0.7 C173.2,0.7 173.4,0.9 173.4,1.2 L173.4,12.3 C173.4,16.4 170,19.8 165.7,19.8 C161.5,19.8 158.1,16.4 158.1,12.3 L158.1,1.2 L158.1,1.2 Z" id="Shape"></path>
                    <path d="M179.3,17 L180.6,14.8 C180.8,14.4 181.3,14.5 181.5,14.6 C181.6,14.7 183.5,16.1 185.3,16.1 C186.4,16.1 187.2,15.4 187.2,14.5 C187.2,13.4 186.3,12.5 184.4,11.8 C182.1,10.9 179.2,9.1 179.2,5.9 C179.2,3.2 181.3,0.6 185.4,0.6 C188.2,0.6 190.3,2 191.2,2.6 C191.5,2.8 191.5,3.3 191.4,3.5 L190,5.6 C189.8,5.9 189.3,6.1 189.1,6 C188.9,5.9 186.9,4.4 185.3,4.4 C184.3,4.4 183.6,5 183.6,5.8 C183.6,6.8 184.4,7.5 186.5,8.4 C188.6,9.2 191.9,10.9 191.9,14.5 C191.9,17.3 189.5,20.1 185.6,20.1 C182.1,20.1 180.2,18.6 179.6,18 C179.2,17.5 179.1,17.4 179.3,17 Z" id="Shape"></path>
                    <path d="M197.8,1.2 C197.8,0.9 198,0.7 198.3,0.7 L209.4,0.7 C209.7,0.7 209.9,0.9 209.9,1.2 L209.9,4.1 C209.9,4.4 209.7,4.6 209.4,4.6 L202,4.6 L202,7.9 L208.1,7.9 C208.4,7.9 208.6,8.1 208.6,8.4 L208.6,11.3 C208.6,11.6 208.4,11.8 208.1,11.8 L202,11.8 L202,15.4 L209.4,15.4 C209.7,15.4 209.9,15.6 209.9,15.9 L209.9,18.8 C209.9,19.1 209.7,19.3 209.4,19.3 L198.3,19.3 C198,19.3 197.8,19.1 197.8,18.8 L197.8,1.2 L197.8,1.2 Z" id="Shape"></path>
                </g>
            </g>
        </g>
    </g>
</svg>