<?xml version="1.0" standalone="no"?>
<!DOCTYPE svg PUBLIC "-//W3C//DTD SVG 20010904//EN"
 "http://www.w3.org/TR/2001/REC-SVG-20010904/DTD/svg10.dtd">
<svg version="1.0" xmlns="http://www.w3.org/2000/svg"
 width="216.000000pt" height="216.000000pt" viewBox="0 0 216.000000 216.000000"
 preserveAspectRatio="xMidYMid meet">
<metadata>
Created by potrace 1.11, written by Peter Selinger 2001-2013
</metadata>
<g transform="translate(0.000000,216.000000) scale(0.100000,-0.100000)"
fill="#000000" stroke="none">
<path d="M34 1775 l-1 -45 82 0 82 0 0 -515 c1 -377 -2 -515 -11 -516 -6 -1
-38 -3 -71 -4 -33 -1 -65 -3 -71 -4 -6 0 -10 -20 -10 -43 l1 -43 215 0 215 0
0 45 0 45 -77 -1 c-43 0 -79 2 -79 5 -1 3 -2 113 -3 244 l-2 237 363 0 363 0
-2 -242 -3 -243 -77 0 c-84 1 -79 4 -81 -60 l-1 -30 217 -3 216 -2 -1 45 c-1
50 5 47 -95 48 -49 0 -64 4 -67 16 -2 9 -3 241 -2 516 l1 500 60 2 c114 2 104
-2 103 48 l-1 45 -216 0 -216 0 0 -45 0 -45 83 0 82 0 -2 -227 -3 -228 -350
-1 c-192 0 -355 3 -360 7 -7 5 -10 89 -10 226 l0 218 71 1 c39 0 76 4 82 8 7
4 11 25 10 47 l-1 39 -216 0 -216 0 -1 -45z"/>
<path d="M1699 1810 c-1 -5 -1 -21 -1 -35 0 -14 0 -29 1 -35 1 -6 35 -10 81
-10 l80 0 -2 -227 -3 -227 -295 0 -295 -1 0 -45 0 -45 298 -3 297 -2 0 -244 0
-243 -77 1 -78 1 -3 -47 -3 -48 216 0 216 0 -3 48 -3 47 -77 -1 c-73 -1 -78 0
-79 20 -3 71 -4 984 0 998 3 15 14 18 65 17 101 -2 96 -4 96 46 l0 45 -215 0
c-136 0 -215 -4 -216 -10z"/>
<path d="M39 447 c-1 -18 -1 -129 0 -159 1 -20 6 -26 21 -25 16 1 20 8 20 39
0 37 1 38 39 38 37 0 38 -1 36 -30 -3 -31 17 -56 35 -45 12 7 14 181 2 189
-16 9 -35 -12 -36 -41 -1 -25 -5 -28 -38 -31 -37 -3 -38 -2 -38 31 0 26 -5 36
-20 40 -11 3 -20 0 -21 -6z"/>
<path d="M333 452 c-38 -6 -73 -50 -73 -92 0 -75 73 -120 138 -86 99 51 46
196 -65 178z m62 -66 c12 -18 13 -30 6 -50 -9 -21 -17 -26 -46 -26 -28 0 -38
5 -47 25 -25 56 53 103 87 51z"/>
<path d="M514 451 c-8 -8 -4 -180 4 -185 15 -9 32 10 34 37 1 15 6 28 10 28 4
1 13 3 18 4 6 1 14 3 19 4 38 5 53 67 24 93 -17 15 -99 29 -109 19z m86 -55
c0 -13 -20 -26 -41 -26 -5 0 -9 9 -9 20 0 15 7 20 25 20 15 0 25 -6 25 -14z"/>
<path d="M725 452 l-31 -3 0 -87 c0 -48 5 -90 10 -94 13 -9 37 2 35 16 -4 29
2 57 10 52 16 -11 61 13 70 36 18 49 -27 87 -94 80z m55 -57 c0 -21 -30 -31
-40 -14 -11 17 -3 29 21 29 10 0 19 -7 19 -15z"/>
<path d="M911 451 c-55 -14 -53 -72 4 -109 41 -26 38 -43 -8 -39 -40 3 -44
-23 -6 -37 36 -12 74 -1 85 26 16 35 6 56 -37 80 -21 12 -39 25 -39 29 0 13
24 17 44 7 17 -9 35 3 36 24 0 11 -55 25 -79 19z"/>
<path d="M1153 453 c-9 -3 -13 -32 -13 -97 0 -85 2 -92 20 -93 19 -2 26 21 21
65 -1 8 12 12 39 12 40 0 40 0 40 -39 0 -32 3 -39 18 -37 14 2 17 16 20 94 3
87 2 92 -18 92 -16 0 -20 -6 -20 -35 0 -34 -1 -35 -38 -35 -37 0 -39 2 -40 31
-1 35 -11 49 -29 42z"/>
<path d="M1433 452 c-30 -4 -73 -57 -73 -88 0 -92 115 -137 170 -67 25 32 26
93 3 122 -20 23 -66 39 -100 33z m61 -58 c9 -8 16 -22 16 -30 0 -55 -66 -75
-96 -29 -15 23 -15 27 0 50 19 29 56 33 80 9z"/>
<path d="M1863 449 c-53 -19 -49 -75 7 -104 17 -9 30 -22 30 -30 0 -18 -31
-20 -47 -4 -8 8 -14 6 -22 -10 -9 -17 -8 -22 8 -31 30 -15 66 -12 91 8 32 26
21 66 -26 94 -33 19 -42 47 -13 39 33 -8 44 -5 44 13 0 23 -40 37 -72 25z"/>
<path d="M2008 390 c-2 -36 -1 -79 2 -95 5 -28 8 -30 45 -29 72 3 75 4 75 23
0 16 -6 19 -40 17 -33 -2 -40 0 -40 15 0 13 9 19 33 21 20 2 32 8 32 18 0 10
-12 16 -32 18 -40 4 -46 31 -8 33 46 3 50 4 53 22 2 11 -3 17 -15 18 -10 0
-37 1 -60 2 l-42 2 -3 -65z"/>
<path d="M1610 381 c0 -86 19 -115 74 -115 58 0 78 27 80 113 3 68 2 71 -21
71 -22 0 -23 -4 -23 -65 0 -52 -4 -66 -18 -74 -32 -17 -46 3 -48 66 -2 76 -1
73 -24 73 -18 0 -20 -7 -20 -69z"/>
</g>
</svg>
